{"title":"Operation.Endgame.2010.480p.BRRip.XviD.AC3-LEGi0N","uid":5743807,"size":1588556345,"categoryP":"video","categoryS":"movies","magnet":"?xt=urn:btih:1e715053ea598be74ab2ce2411d2d3d5c52039c0&amp;dn=Operation.Endgame.2010.480p.BRRip.XviD.AC3-LEGi0N&amp;tr=udp%3A%2F%2Ftracker.openbittorrent.com%3A80&amp;tr=udp%3A%2F%2Fopen.demonii.com%3A1337&amp;tr=udp%3A%2F%2Ftracker.coppersurfer.tk%3A6969&amp;tr=udp%3A%2F%2Fexodus.desync.com%3A6969","seeders":0,"leechers":1,"uploader":"TvTeam","files":5,"time":1281125720,"description":". \n  &lt;a href=&quot;\nhttp://www.torrentday.com/&quot; rel=&quot;nofollow&quot; target=&quot;_NEW&quot;&gt;\nhttp://www.torrentday.com/&lt;/a&gt;        :     The Hottest Private Tracker On The Net!!!\n\n\n               www . TorrentDay . Com \n(((((((((((((= Enjoy No RAR releases =))))))))))))))))))))\n\n\n...................................NFO:....................................\n\n.[img]http://leetleech.org/images/40489288747878373932.png[/img]\n\n[b]Operation Endgame 2010 480p BRRip XviD AC3-LEGi0N\n\n[img]http://leetleech.org/images/48874973695367351744.png[/img]\n[color=red]General[/color]\nFormat: AVI\nFile size: 1.45 GiB\nDuration: 1h 22mn\nOverall bit rate: 2 530 Kbps\nIMDb Rating: 5.7/10   392 votes\nGenre: Action | Drama | Comedy\nRelease Date: 16 July 2010\nIMDb Link: http://www.imdb.com/title/tt1268987/\nSource: 720p Bluray x264-WiKi\n\n[color=red]Video[/color]\nFormat: MPEG-4 Visual\nFormat profile: Streaming Video@L1\nFormat settings, BVOP: Yes\nFormat settings, QPel: No\nFormat settings, GMC: No warppoints\nFormat settings, Matrix: Default (H.263)\nMuxing mode: Packed bitstream\nCodec ID: XVID\nBit rate: 2 072 Kbps\nWidth: 720 pixels\nHeight: 304 pixels\nDisplay aspect ratio: 2.35\nFrame rate: 23.976 fps\nResolution: 24 bits\nColorimetry: 4:2:0\nScan type: Progressive\nBits/(Pixel*Frame): 0.395\nStream size: 1.19 GiB (82%)\n\n[color=red]Audio[/color]\nFormat: AC-3\nBit rate mode: Constant\nBit rate: 448 Kbps\nChannel(s): 6 channels\nSampling rate: 48.0 KHz\nStream size: 263 MiB (18%)\n\n[img]http://leetleech.org/images/89524873606771859129.png[/img]\nA dry action-comedy about two teams of government assassins working \nout of a top-secret underground facility using code names from the \nTarot deck. When our hero--The Fool--arrives for his first day at work \nto find that the boss has been killed under mysterious circumstances, \nhe must find the killer before the whole place blows up.\n\n[color=red]Tagline:[/color] \nTwo rival teams of assassins. One killer day at the office. \n\n[img]http://leetleech.org/images/84434050717770922575.png[/img]\nZach Galifianakis\t ... \tHermit\nEmilie de Ravin\t... \tHeirophant\nMaggie Q\t... \tHigh Priestess\nOdette Yustman\t... \tTemperence\nRob Corddry\t... \tChariot\nAdam Scott\t... \tMagician\nEllen Barkin\t... \tEmpress\nVing Rhames\t... \tJudgement\nBrandon T. Jackson\t... \tTower\nJeffrey Tambor\t... \tDevil\nJoe Anderson\t... \tFool\nBeth Grant\t... \tInterviewer\nBob Odenkirk\t... \tEmperor\nTim Bagley\t... \tCarl\nMichael Hitchcock\t... \tNeal\nMatt Baker\t... \tBathroom Victim\n\n[color=red]GREETZ[/color]\nNoir | xXTHORNXx | bigimac | LUSi |\n\nkempas | KaN1vE | mike160 | skillz |\n\nLungbuster | Sheikh | dillon1369 |\n\nFLAWL3SS | AND ALL P2P![/b]\n\n[img]http://leetleech.org/images/95521316153253938506.png[/img]\n[img]http://leetleech.org/images/00153730339730821164.png[/img]\n[img]http://leetleech.org/images/08639844345238608420.png[/img]\n[img]http://leetleech.org/images/30844910928635391581.png[/img]\n[img]http://leetleech.org/images/23112313764273988830.png[/img]\n[img]http://leetleech.org/images/08841069719219014684.png[/img]\n[img]http://leetleech.org/images/54205583593585487178.png[/img]\n[img]http://leetleech.org/images/36576617075709494950.png[/img]\n[img]http://leetleech.org/images/12755021538703799215.png[/img]","torrent":{"xt":"urn:btih:1e715053ea598be74ab2ce2411d2d3d5c52039c0","amp;dn":"Operation.Endgame.2010.480p.BRRip.XviD.AC3-LEGi0N","amp;tr":["udp%3A%2F%2Ftracker.openbittorrent.com%3A80","udp%3A%2F%2Fopen.demonii.com%3A1337","udp%3A%2F%2Ftracker.coppersurfer.tk%3A6969","udp%3A%2F%2Fexodus.desync.com%3A6969"],"infoHash":"1e715053ea598be74ab2ce2411d2d3d5c52039c0","infoHashBuffer":{"type":"Buffer","data":[30,113,80,83,234,89,139,231,74,178,206,36,17,210,211,213,197,32,57,192]},"announce":[],"urlList":[]}}